<?xml version="1.0" encoding="UTF-8" standalone="no" ?>
<!DOCTYPE svg PUBLIC "-//W3C//DTD SVG 1.1//EN" "http://www.w3.org/Graphics/SVG/1.1/DTD/svg11.dtd">
<svg xmlns="http://www.w3.org/2000/svg" xmlns:xlink="http://www.w3.org/1999/xlink" version="1.1" width="317.79" height="75.43199999999999" xml:space="preserve">
<desc>Created with Fabric.js 1.6.0-rc.1</desc>
<defs></defs>
  <g transform="translate(189.79 39.72) scale(0.8 1)">
   <text font-family="Gross" font-size="40" font-weight="normal" style="stroke: none; stroke-width: 1; stroke-dasharray: none; stroke-linecap: butt; stroke-linejoin: miter; stroke-miterlimit: 10; fill: #ffffff; fill-rule: nonzero; opacity: 1;" ><tspan x="-148" y="8.98" style="stroke: none; stroke-width: 0; stroke-dasharray: none; stroke-linecap: butt; stroke-linejoin: miter; stroke-miterlimit: 4; fill: #ffffff; fill-rule: ; opacity: 1;">A</tspan><tspan x="-117" y="8.98" style="stroke: none; stroke-width: 0; stroke-dasharray: none; stroke-linecap: butt; stroke-linejoin: miter; stroke-miterlimit: 4; fill: #ffffff; fill-rule: ; opacity: 1;">g</tspan><tspan x="-85" y="8.98" style="stroke: none; stroke-width: 0; stroke-dasharray: none; stroke-linecap: butt; stroke-linejoin: miter; stroke-miterlimit: 4; fill: #ffffff; fill-rule: ; opacity: 1;">r</tspan><tspan x="-59" y="8.98" style="stroke: none; stroke-width: 0; stroke-dasharray: none; stroke-linecap: butt; stroke-linejoin: miter; stroke-miterlimit: 4; fill: #ffffff; fill-rule: ; opacity: 1;">o</tspan><tspan x="-26" y="8.98" style="stroke: none; stroke-width: 0; stroke-dasharray: none; stroke-linecap: butt; stroke-linejoin: miter; stroke-miterlimit: 4; fill: #ffffff; fill-rule: ; opacity: 1;">-</tspan><tspan x="-9" y="8.98" style="stroke: none; stroke-width: 0; stroke-dasharray: none; stroke-linecap: butt; stroke-linejoin: miter; stroke-miterlimit: 4; fill: #ffffff; fill-rule: ; opacity: 1;">S</tspan><tspan x="21" y="8.98" style="stroke: none; stroke-width: 0; stroke-dasharray: none; stroke-linecap: butt; stroke-linejoin: miter; stroke-miterlimit: 4; fill: #ffffff; fill-rule: ; opacity: 1;">a</tspan><tspan x="52" y="8.98" style="stroke: none; stroke-width: 0; stroke-dasharray: none; stroke-linecap: butt; stroke-linejoin: miter; stroke-miterlimit: 4; fill: #ffffff; fill-rule: ; opacity: 1;">v</tspan><tspan x="81" y="8.98" style="stroke: none; stroke-width: 0; stroke-dasharray: none; stroke-linecap: butt; stroke-linejoin: miter; stroke-miterlimit: 4; fill: #ffffff; fill-rule: ; opacity: 1;">a</tspan><tspan x="112" y="8.98" style="stroke: none; stroke-width: 0; stroke-dasharray: none; stroke-linecap: butt; stroke-linejoin: miter; stroke-miterlimit: 4; fill: #ffffff; fill-rule: ; opacity: 1;">r</tspan><tspan x="138" y="8.98" style="stroke: none; stroke-width: 0; stroke-dasharray: none; stroke-linecap: butt; stroke-linejoin: miter; stroke-miterlimit: 4; fill: #ffffff; fill-rule: ; opacity: 1;">i</tspan></text>
 </g>
<g style="stroke: none; stroke-width: 1; stroke-dasharray: none; stroke-linecap: butt; stroke-linejoin: miter; stroke-miterlimit: 10; fill: none; fill-rule: nonzero; opacity: 1;" transform="translate(9.999999999999996 10) scale(0.1 0.1)" >
  <path d="M 256 200.348 H 105.739 V 83.478 c 0 -9.22 7.475 -16.696 16.696 -16.696 H 256 c 9.22 0 16.696 7.475 16.696 16.696 v 100.174 C 272.696 192.873 265.22 200.348 256 200.348 z" style="stroke: none; stroke-width: 1; stroke-dasharray: none; stroke-linecap: butt; stroke-linejoin: miter; stroke-miterlimit: 10; fill: #736056; fill-rule: nonzero; opacity: 1;" transform=" matrix(1 0 0 1 0 0) " stroke-linecap="round" />
  <path d="M 406.261 200.348 V 83.478 c 0 -9.22 -7.475 -16.696 -16.696 -16.696 H 256 v 133.565 H 406.261 z" style="stroke: none; stroke-width: 1; stroke-dasharray: none; stroke-linecap: butt; stroke-linejoin: miter; stroke-miterlimit: 10; fill: #665247; fill-rule: nonzero; opacity: 1;" transform=" matrix(1 0 0 1 0 0) " stroke-linecap="round" />
  <path d="M 144.696 512 h -33.391 c -27.619 0 -50.087 -22.468 -50.087 -50.087 v -33.391 c 0 -9.223 7.479 -16.696 16.696 -16.696 h 100.174 c 9.217 0 16.696 7.473 16.696 16.696 v 33.391 C 194.783 489.532 172.315 512 144.696 512 z" style="stroke: none; stroke-width: 1; stroke-dasharray: none; stroke-linecap: butt; stroke-linejoin: miter; stroke-miterlimit: 10; fill: #736056; fill-rule: nonzero; opacity: 1;" transform=" matrix(1 0 0 1 0 0) " stroke-linecap="round" />
  <path d="M 400.696 512 h -33.391 c -27.619 0 -50.087 -22.468 -50.087 -50.087 v -33.391 c 0 -9.223 7.479 -16.696 16.696 -16.696 h 100.174 c 9.217 0 16.696 7.473 16.696 16.696 v 33.391 C 450.783 489.532 428.315 512 400.696 512 z" style="stroke: none; stroke-width: 1; stroke-dasharray: none; stroke-linecap: butt; stroke-linejoin: miter; stroke-miterlimit: 10; fill: #665247; fill-rule: nonzero; opacity: 1;" transform=" matrix(1 0 0 1 0 0) " stroke-linecap="round" />
  <path d="M 456.348 445.217 H 55.652 c -27.619 0 -50.087 -22.468 -50.087 -50.087 v -33.391 c 0 -9.223 7.479 -16.696 16.696 -16.696 h 467.478 c 9.217 0 16.696 7.473 16.696 16.696 v 33.391 C 506.435 422.749 483.967 445.217 456.348 445.217 z" style="stroke: none; stroke-width: 1; stroke-dasharray: none; stroke-linecap: butt; stroke-linejoin: miter; stroke-miterlimit: 10; fill: #D7EBFF; fill-rule: nonzero; opacity: 1;" transform=" matrix(1 0 0 1 0 0) " stroke-linecap="round" />
  <path d="M 489.739 345.043 H 256 v 100.174 h 200.348 c 27.619 0 50.087 -22.468 50.087 -50.087 v -33.391 C 506.435 352.516 498.956 345.043 489.739 345.043 z" style="stroke: none; stroke-width: 1; stroke-dasharray: none; stroke-linecap: butt; stroke-linejoin: miter; stroke-miterlimit: 10; fill: #BDDEFF; fill-rule: nonzero; opacity: 1;" transform=" matrix(1 0 0 1 0 0) " stroke-linecap="round" />
  <path d="M 55.652 166.957 c -9.217 0 -16.696 -7.473 -16.696 -16.696 V 50.087 c 0 -9.206 -7.49 -16.696 -16.696 -16.696 c -9.217 0 -16.696 -7.473 -16.696 -16.696 S 13.044 0 22.261 0 C 49.88 0 72.348 22.468 72.348 50.087 v 100.174 C 72.348 159.484 64.869 166.957 55.652 166.957 z" style="stroke: none; stroke-width: 1; stroke-dasharray: none; stroke-linecap: butt; stroke-linejoin: miter; stroke-miterlimit: 10; fill: #C9D2D9; fill-rule: nonzero; opacity: 1;" transform=" matrix(1 0 0 1 0 0) " stroke-linecap="round" />
  <path d="M 456.348 166.957 c -9.217 0 -16.696 -7.473 -16.696 -16.696 V 50.087 C 439.652 22.468 462.12 0 489.739 0 c 9.217 0 16.696 7.473 16.696 16.696 s -7.479 16.696 -16.696 16.696 c -9.206 0 -16.696 7.49 -16.696 16.696 v 100.174 C 473.043 159.484 465.565 166.957 456.348 166.957 z" style="stroke: none; stroke-width: 1; stroke-dasharray: none; stroke-linecap: butt; stroke-linejoin: miter; stroke-miterlimit: 10; fill: #B7C4CC; fill-rule: nonzero; opacity: 1;" transform=" matrix(1 0 0 1 0 0) " stroke-linecap="round" />
  <path d="M 272.696 184.634 v -68.745 c 0 -8.68 7.036 -15.715 15.714 -15.715 h 117.851 V 83.478 C 406.261 37.375 368.886 0 322.783 0 H 189.217 c -46.103 0 -83.478 37.375 -83.478 83.478 v 16.696 H 223.59 c 8.678 0 15.714 7.036 15.714 15.714 v 68.745 c 0 8.678 -7.036 15.714 -15.714 15.714 H 72.348 v 161.391 c 0 9.22 7.475 16.696 16.696 16.696 h 66.783 c 9.22 0 16.696 -7.475 16.696 -16.696 v -61.217 h 166.957 v 61.217 c 0 9.22 7.475 16.696 16.696 16.696 h 66.783 c 9.22 0 16.696 -7.475 16.696 -16.696 v -161.39 H 288.41 C 279.731 200.348 272.696 193.312 272.696 184.634 z" style="stroke: none; stroke-width: 1; stroke-dasharray: none; stroke-linecap: butt; stroke-linejoin: miter; stroke-miterlimit: 10; fill: #88CC2A; fill-rule: nonzero; opacity: 1;" transform=" matrix(1 0 0 1 0 0) " stroke-linecap="round" />
  <path d="M 288.41 200.348 c -8.678 0 -15.714 -7.036 -15.714 -15.714 v -68.745 c 0 -8.68 7.036 -15.715 15.714 -15.715 h 117.851 V 83.478 C 406.261 37.375 368.886 0 322.783 0 H 256 v 300.522 h 83.478 v 61.217 c 0 9.22 7.475 16.696 16.696 16.696 h 66.783 c 9.22 0 16.696 -7.475 16.696 -16.696 V 200.348 H 288.41 z" style="stroke: none; stroke-width: 1; stroke-dasharray: none; stroke-linecap: butt; stroke-linejoin: miter; stroke-miterlimit: 10; fill: #7FB335; fill-rule: nonzero; opacity: 1;" transform=" matrix(1 0 0 1 0 0) " stroke-linecap="round" />
  <path d="M 372.87 378.435 H 139.13 v -116.87 c 0 -9.22 7.475 -16.696 16.696 -16.696 h 200.348 c 9.22 0 16.696 7.475 16.696 16.696 V 378.435 z" style="stroke: none; stroke-width: 1; stroke-dasharray: none; stroke-linecap: butt; stroke-linejoin: miter; stroke-miterlimit: 10; fill: #C9D2D9; fill-rule: nonzero; opacity: 1;" transform=" matrix(1 0 0 1 0 0) " stroke-linecap="round" />
  <path d="M 356.174 244.87 H 256 v 133.565 h 116.87 v -116.87 C 372.87 252.345 365.394 244.87 356.174 244.87 z" style="stroke: none; stroke-width: 1; stroke-dasharray: none; stroke-linecap: butt; stroke-linejoin: miter; stroke-miterlimit: 10; fill: #B7C4CC; fill-rule: nonzero; opacity: 1;" transform=" matrix(1 0 0 1 0 0) " stroke-linecap="round" />
  <path d="M 322.783 311.652 H 189.217 c -9.217 0 -16.696 -7.473 -16.696 -16.696 s 7.479 -16.696 16.696 -16.696 h 133.565 c 9.217 0 16.696 7.473 16.696 16.696 S 332 311.652 322.783 311.652 z" style="stroke: none; stroke-width: 1; stroke-dasharray: none; stroke-linecap: butt; stroke-linejoin: miter; stroke-miterlimit: 10; fill: #806F66; fill-rule: nonzero; opacity: 1;" transform=" matrix(1 0 0 1 0 0) " stroke-linecap="round" />
  <path d="M 256 311.652 h 66.783 c 9.217 0 16.696 -7.473 16.696 -16.696 s -7.479 -16.696 -16.696 -16.696 H 256 V 311.652 z" style="stroke: none; stroke-width: 1; stroke-dasharray: none; stroke-linecap: butt; stroke-linejoin: miter; stroke-miterlimit: 10; fill: #736056; fill-rule: nonzero; opacity: 1;" transform=" matrix(1 0 0 1 0 0) " stroke-linecap="round" />
  <path d="M 322.783 378.435 H 189.217 c -9.217 0 -16.696 -7.473 -16.696 -16.696 s 7.479 -16.696 16.696 -16.696 h 133.565 c 9.217 0 16.696 7.473 16.696 16.696 S 332 378.435 322.783 378.435 z" style="stroke: none; stroke-width: 1; stroke-dasharray: none; stroke-linecap: butt; stroke-linejoin: miter; stroke-miterlimit: 10; fill: #806F66; fill-rule: nonzero; opacity: 1;" transform=" matrix(1 0 0 1 0 0) " stroke-linecap="round" />
  <path d="M 256 378.435 h 66.783 c 9.217 0 16.696 -7.473 16.696 -16.696 s -7.479 -16.696 -16.696 -16.696 H 256 V 378.435 z" style="stroke: none; stroke-width: 1; stroke-dasharray: none; stroke-linecap: butt; stroke-linejoin: miter; stroke-miterlimit: 10; fill: #736056; fill-rule: nonzero; opacity: 1;" transform=" matrix(1 0 0 1 0 0) " stroke-linecap="round" />
  <path d="M 489.739 278.261 h -66.783 c -9.217 0 -16.696 -7.473 -16.696 -16.696 v -77.913 c 0 -13.364 5.218 -25.935 14.684 -35.403 s 22.044 -14.684 35.403 -14.684 c 27.619 0 50.087 22.468 50.087 50.087 v 77.913 C 506.435 270.788 498.956 278.261 489.739 278.261 z" style="stroke: none; stroke-width: 1; stroke-dasharray: none; stroke-linecap: butt; stroke-linejoin: miter; stroke-miterlimit: 10; fill: #BDDEFF; fill-rule: nonzero; opacity: 1;" transform=" matrix(1 0 0 1 0 0) " stroke-linecap="round" />
  <path d="M 506.435 378.435 H 406.261 V 244.87 h 100.174 V 378.435 z" style="stroke: none; stroke-width: 1; stroke-dasharray: none; stroke-linecap: butt; stroke-linejoin: miter; stroke-miterlimit: 10; fill: #736056; fill-rule: nonzero; opacity: 1;" transform=" matrix(1 0 0 1 0 0) " stroke-linecap="round" />
  <path d="M 89.043 278.261 H 22.261 c -9.217 0 -16.696 -7.473 -16.696 -16.696 v -77.913 c 0 -27.619 22.468 -50.087 50.087 -50.087 c 13.359 0 25.935 5.218 35.403 14.684 c 9.466 9.468 14.684 22.038 14.684 35.403 v 77.913 C 105.739 270.788 98.261 278.261 89.043 278.261 z" style="stroke: none; stroke-width: 1; stroke-dasharray: none; stroke-linecap: butt; stroke-linejoin: miter; stroke-miterlimit: 10; fill: #D7EBFF; fill-rule: nonzero; opacity: 1;" transform=" matrix(1 0 0 1 0 0) " stroke-linecap="round" />
  <path d="M 105.739 378.435 H 5.565 V 244.87 h 100.174 V 378.435 z" style="stroke: none; stroke-width: 1; stroke-dasharray: none; stroke-linecap: butt; stroke-linejoin: miter; stroke-miterlimit: 10; fill: #806F66; fill-rule: nonzero; opacity: 1;" transform=" matrix(1 0 0 1 0 0) " stroke-linecap="round" />
</g>
</svg>